<?xml version="1.0" encoding="utf-8" ?>
<svg baseProfile="full" height="120px" version="1.1" width="650px" xmlns="http://www.w3.org/2000/svg" xmlns:ev="http://www.w3.org/2001/xml-events" xmlns:xlink="http://www.w3.org/1999/xlink"><defs /><style type="text/css"><![CDATA[.text-monospace {
    font-size:12px;
    font-family:monospace;
}
.box-field {
    stroke:#002b49;
    stroke-width:1;
    fill:#67cfe3;
    fill-opacity:1;
}
.box-padding {
    fill:#ieaeff2;
    fill-opacity:1;
}
]]></style><text class="text-monospace" x="80" y="20">0</text><text class="text-monospace" x="230" y="20">1</text><text class="text-monospace" x="380" y="20">2</text><text class="text-monospace" x="530" y="20">3</text><text class="text-monospace" x="20" y="50"> 0</text><text class="text-monospace" x="20" y="80"> 4</text><text class="text-monospace" x="20" y="110"> 8</text><rect class="box-field" height="30" width="150" x="40" y="30" /><text class="text-monospace" x="50" y="50">packet_length</text><rect class="box-field" height="30" width="150" x="190" y="30" /><text class="text-monospace" x="210" y="50">packet_type</text><rect class="box-field" height="30" width="300" x="340" y="30" /><text class="text-monospace" x="475" y="50">sha</text><rect class="box-field" height="30" width="600" x="40" y="60" /><text class="text-monospace" x="290" y="80">us_counter</text><rect class="box-field" height="30" width="150" x="40" y="90" /><text class="text-monospace" x="85" y="110">reason</text><rect class="box-field" height="30" width="150" x="190" y="90" /><text class="text-monospace" x="205" y="110">packet_rfu_1</text><rect class="box-field" height="30" width="150" x="340" y="90" /><text class="text-monospace" x="355" y="110">packet_rfu_2</text><rect class="box-field" height="30" width="150" x="490" y="90" /><text class="text-monospace" x="505" y="110">packet_rfu_3</text></svg>